<?xml version="1.0" encoding="UTF-8"?>
<svg version="1.1" xmlns="http://www.w3.org/2000/svg" width="725" height="576">
<path d="M0 0 C239.25 0 478.5 0 725 0 C725 190.08 725 380.16 725 576 C485.75 576 246.5 576 0 576 C0 385.92 0 195.84 0 0 Z " fill="#000000" transform="translate(0,0)"/>
<path d="M0 0 C0.99 0.33 1.98 0.66 3 1 C3.58984375 2.78515625 3.58984375 2.78515625 3.9375 5.0625 C4.42751985 8.26734248 5.33092055 10.76781978 6.82446289 13.61401367 C9.02009911 17.94011174 10.80534308 22.36014881 12.53125 26.890625 C13.00794128 28.12942413 13.00794128 28.12942413 13.4942627 29.39324951 C14.16168289 31.13040257 14.82714307 32.86830983 15.49072266 34.60693359 C16.49267188 37.23080932 17.50168554 39.85188329 18.51171875 42.47265625 C28 67.17102512 28 67.17102512 28 72 C30.47627099 71.36078035 30.47627099 71.36078035 33 70 C33.68232272 68.33968138 34.3466078 66.67191533 35 65 C36.15468473 63.35679481 37.36471734 61.75118404 38.625 60.1875 C39.25664062 59.39730469 39.88828125 58.60710937 40.5390625 57.79296875 C41.02117187 57.20128906 41.50328125 56.60960937 42 56 C45 57 45 57 46.16796875 58.99609375 C46.50441406 59.80175781 46.84085937 60.60742188 47.1875 61.4375 C47.53167969 62.24058594 47.87585938 63.04367188 48.23046875 63.87109375 C49 66 49 66 49 68 C49.66 68 50.32 68 51 68 C52.46683251 70.6831566 53.92353026 73.37104767 55.375 76.0625 C55.7875 76.81466797 56.2 77.56683594 56.625 78.34179688 C59.04093704 82.84245377 60.79914464 87.03162592 62 92 C62.66 92 63.32 92 64 92 C68 98.5 68 98.5 68 103 C68.66 103 69.32 103 70 103 C72.74522883 107.42778844 74.48474397 110.71862571 75 116 C75.66 116 76.32 116 77 116 C81 122.5 81 122.5 81 127 C81.66 127 82.32 127 83 127 C83.30591064 127.59723877 83.61182129 128.19447754 83.92700195 128.80981445 C89.32090162 139.3134072 94.75171678 149.7640037 100.75 159.9375 C104.3722505 166.08728775 107.74073986 172.28212085 110.85449219 178.70361328 C114.34912178 185.85562134 118.23763774 192.79183208 122.14038086 199.7277832 C122.64061768 200.62843506 123.14085449 201.52908691 123.65625 202.45703125 C124.10806641 203.26116455 124.55988281 204.06529785 125.02539062 204.89379883 C126 207 126 207 126 210 C63.96 210 1.92 210 -62 210 C-60.94568317 205.78273268 -59.18216984 202.78744541 -56.875 199.1875 C-56.44050537 198.50099365 -56.00601074 197.8144873 -55.55834961 197.10717773 C-49.72190712 187.92468292 -43.74168551 178.83379546 -37.78369141 169.72998047 C-35.2610443 165.86901141 -32.75370873 161.9982666 -30.25 158.125 C-29.816875 157.45645996 -29.38375 156.78791992 -28.9375 156.09912109 C-26.61665216 152.51417782 -24.3107897 148.92034171 -22.01953125 145.31640625 C-21.52485352 144.54216309 -21.03017578 143.76791992 -20.52050781 142.97021484 C-19.57683275 141.49275976 -18.63710995 140.01276969 -17.70214844 138.52978516 C-15.39880403 134.93200646 -13.07804717 131.98971469 -10 129 C-9.28450445 127.34135122 -8.57290793 125.68041955 -7.91015625 124 C-5.28053746 118.22161022 -1.45166105 113.45166105 3 109 C4.02879146 107.01465667 5.03176329 105.01556882 6 103 C2.6441438 104.0990756 -0.70935523 105.20518243 -4.0625 106.3125 C-5.47692383 106.7755957 -5.47692383 106.7755957 -6.91992188 107.24804688 C-10.97743325 108.59112555 -14.97548489 109.93179414 -18.875 111.6875 C-21.72234804 112.88338618 -23.88655291 113.45281176 -26.9375 113.6875 C-27.70964844 113.75324219 -28.48179687 113.81898438 -29.27734375 113.88671875 C-30.13005859 113.94279297 -30.13005859 113.94279297 -31 114 C-28.17585917 105.05688738 -24.3665202 96.53008149 -20.57202148 87.96875 C-18.85615933 84.06365258 -17.28125172 80.15511163 -15.875 76.125 C-14.30720363 71.6436593 -12.3457575 67.4998539 -10.16015625 63.2890625 C-9.13157265 61.25960126 -8.23098818 59.23135834 -7.375 57.125 C-6 54 -6 54 -4.4375 52.0625 C-2.75420021 49.64733073 -2.42011953 47.40993747 -1.8046875 44.5703125 C0.01624533 38.75393481 3.17353947 33.38085534 6 28 C2.96349403 30.8491958 0.71559674 33.74403336 -1.50390625 37.26171875 C-2.15705811 38.29047119 -2.81020996 39.31922363 -3.4831543 40.37915039 C-4.16933838 41.47090576 -4.85552246 42.56266113 -5.5625 43.6875 C-6.27783045 44.81733778 -6.99373656 45.9468113 -7.71020508 47.07592773 C-9.14019962 49.32983485 -10.56824277 51.5849312 -11.99511719 53.84082031 C-15.11505671 58.7570426 -18.28595444 63.6396528 -21.46118164 68.52026367 C-23.56537182 71.76104859 -25.6538238 75.01137766 -27.71875 78.27734375 C-28.12416016 78.91792725 -28.52957031 79.55851074 -28.94726562 80.21850586 C-30.23195435 82.39252572 -31.17978353 84.61391574 -32 87 C-32.66 87 -33.32 87 -34 87 C-34.268125 87.721875 -34.53625 88.44375 -34.8125 89.1875 C-35.99354833 91.98471974 -37.33361698 94.46419975 -39 97 C-39.33 97 -39.66 97 -40 97 C-39.58544406 92.02532872 -38.45085323 88.60401789 -36.1015625 84.2265625 C-34.87328897 81.74388195 -33.96915138 79.24175806 -33.0625 76.625 C-31.45819041 72.06901144 -29.49928358 67.87590674 -27.28515625 63.58984375 C-24.92806872 58.83984669 -22.99908675 53.90852686 -21 49 C-20.06432055 46.7492423 -19.12687859 44.49921633 -18.1875 42.25 C-17.76855469 41.24453125 -17.34960938 40.2390625 -16.91796875 39.203125 C-16.61503906 38.47609375 -16.31210937 37.7490625 -16 37 C-15.34 37 -14.68 37 -14 37 C-13.7525 35.741875 -13.505 34.48375 -13.25 33.1875 C-11.5009709 25.35382037 -8.6695506 18.01845469 -4.9453125 10.921875 C-3.92197097 8.84136246 -3.10773684 6.73975038 -2.3125 4.5625 C-1 1 -1 1 0 0 Z " fill="#FAFAFA" transform="translate(375,105)"/>
<path d="M0 0 C2 1 2 1 2.96142578 3.26904297 C3.2861084 4.25018066 3.61079102 5.23131836 3.9453125 6.2421875 C4.29980469 7.30824219 4.65429688 8.37429687 5.01953125 9.47265625 C5.56673828 11.15681641 5.56673828 11.15681641 6.125 12.875 C6.49753906 13.99003906 6.87007813 15.10507813 7.25390625 16.25390625 C10 24.59277701 10 24.59277701 10 28 C10.66 28 11.32 28 12 28 C12.9925859 31.14175409 13.966512 34.2890103 14.9375 37.4375 C15.21529297 38.31599609 15.49308594 39.19449219 15.77929688 40.09960938 C19.49090237 52.21822492 19.49090237 52.21822492 19 57 C16.85546875 59.6015625 16.85546875 59.6015625 14 62 C12.27857859 64.36052465 10.81022125 66.8680244 9.3125 69.375 C5.46343441 75.69867446 1.46554464 81.88234784 -2.77612305 87.95068359 C-5.21560013 91.51926153 -6.83567231 94.83626294 -8 99 C0.15280034 96.57582847 8.13291041 93.92570084 16.1015625 90.953125 C19 90 19 90 22 90 C21.74279326 91.58560393 21.46861201 93.16845924 21.1875 94.75 C20.96126953 96.07257813 20.96126953 96.07257813 20.73046875 97.421875 C20 100 20 100 18.65307617 101.68237305 C16.44570517 104.77712609 15.18328949 108.13988505 13.8203125 111.66015625 C13.37835037 112.77782631 13.37835037 112.77782631 12.92745972 113.91807556 C11.98752642 116.29732151 11.05575213 118.6796491 10.125 121.0625 C8.9021651 124.17986333 7.67533314 127.29562149 6.4453125 130.41015625 C6.14955322 131.16093445 5.85379395 131.91171265 5.54907227 132.6852417 C3.5258304 137.78318616 1.3468396 142.7810784 -1.03466797 147.72387695 C-2.58574556 151.38110921 -3.24690374 155.10900266 -4 159 C-5.7082941 160.7082941 -7.86004377 160.11971926 -10.13786316 160.12442017 C-10.87297623 160.12082489 -11.60808929 160.11722961 -12.36547852 160.11352539 C-13.13615662 160.11367142 -13.90683472 160.11381744 -14.7008667 160.1139679 C-17.26024139 160.1132686 -19.8195442 160.10547545 -22.37890625 160.09765625 C-24.14867615 160.09579213 -25.91844656 160.0943682 -27.68821716 160.09336853 C-32.35551366 160.08954288 -37.02277923 160.0797122 -41.69006348 160.06866455 C-46.44897035 160.05845144 -51.20788221 160.05387113 -55.96679688 160.04882812 C-65.31121153 160.03808997 -74.6556032 160.02101299 -84 160 C-84 158.68 -84 157.36 -84 156 C-83.34 156 -82.68 156 -82 156 C-81.62875 154.7934375 -81.62875 154.7934375 -81.25 153.5625 C-79.73921353 149.25675857 -77.89811144 145.14635993 -76 141 C-75.34 141 -74.68 141 -74 141 C-73.773125 140.236875 -73.54625 139.47375 -73.3125 138.6875 C-71.51834512 133.64677913 -69.25941923 128.84654049 -67 124 C-66.34 124 -65.68 124 -65 124 C-64.773125 123.236875 -64.54625 122.47375 -64.3125 121.6875 C-62.51834512 116.64677913 -60.25941923 111.84654049 -58 107 C-57.34 107 -56.68 107 -56 107 C-55.7525 106.195625 -55.505 105.39125 -55.25 104.5625 C-53.24744519 98.85521879 -50.73296616 93.39272786 -48 88 C-47.34 88 -46.68 88 -46 88 C-45.7525 87.195625 -45.505 86.39125 -45.25 85.5625 C-43.4968485 80.56601823 -41.36815184 75.73630368 -39 71 C-38.34 71 -37.68 71 -37 71 C-36.7525 70.195625 -36.505 69.39125 -36.25 68.5625 C-34.73921353 64.25675857 -32.89811144 60.14635993 -31 56 C-30.34 56 -29.68 56 -29 56 C-28.773125 55.236875 -28.54625 54.47375 -28.3125 53.6875 C-26.51834512 48.64677913 -24.25941923 43.84654049 -22 39 C-21.34 39 -20.68 39 -20 39 C-19.60167969 37.72769531 -19.60167969 37.72769531 -19.1953125 36.4296875 C-17.95559534 32.87259054 -16.47517384 29.53406601 -14.875 26.125 C-14.33617187 24.97257812 -13.79734375 23.82015625 -13.2421875 22.6328125 C-12.83226562 21.76398438 -12.42234375 20.89515625 -12 20 C-11.34 20 -10.68 20 -10 20 C-9.773125 19.236875 -9.54625 18.47375 -9.3125 17.6875 C-7.51834512 12.64677913 -5.25941923 7.84654049 -3 3 C-2.34 3 -1.68 3 -1 3 C-0.67 2.01 -0.34 1.02 0 0 Z " fill="#FAFAFA" transform="translate(311,155)"/>
<path d="M0 0 C1.26650391 0.00966797 1.26650391 0.00966797 2.55859375 0.01953125 C3.43128906 0.03628906 4.30398437 0.05304688 5.203125 0.0703125 C6.53537109 0.08384766 6.53537109 0.08384766 7.89453125 0.09765625 C10.08100558 0.12116673 12.26692594 0.15402751 14.453125 0.1953125 C14.453125 0.8553125 14.453125 1.5153125 14.453125 2.1953125 C15.030625 2.4428125 15.608125 2.6903125 16.203125 2.9453125 C18.8547267 4.41842456 20.50107035 5.86644401 22.453125 8.1953125 C22.94087219 10.6816864 22.94087219 10.6816864 22.9230957 13.4987793 C22.92748405 15.08513435 22.92748405 15.08513435 22.93196106 16.70353699 C22.91445297 17.83906509 22.89694489 18.9745932 22.87890625 20.14453125 C22.87561813 21.31289017 22.87233002 22.48124908 22.86894226 23.68501282 C22.85852328 26.15212582 22.83857672 28.6192143 22.80981445 31.08618164 C22.76567457 34.87855359 22.74837124 38.67029342 22.73632812 42.46289062 C22.72290736 44.85678004 22.70798531 47.25066162 22.69140625 49.64453125 C22.68401932 50.78613205 22.67663239 51.92773285 22.66902161 53.10392761 C22.65618637 54.15204117 22.64335114 55.20015472 22.63012695 56.2800293 C22.62028275 57.20728317 22.61043854 58.13453705 22.60029602 59.08988953 C22.453125 61.1953125 22.453125 61.1953125 21.453125 62.1953125 C18.92263098 62.26844817 16.42007663 62.28778777 13.890625 62.2578125 C13.17970703 62.25330078 12.46878906 62.24878906 11.73632812 62.24414062 C9.97522487 62.23232114 8.21416464 62.21438513 6.453125 62.1953125 C6.453125 57.5753125 6.453125 52.9553125 6.453125 48.1953125 C5.463125 48.1953125 4.473125 48.1953125 3.453125 48.1953125 C3.46472656 49.12214844 3.47632813 50.04898438 3.48828125 51.00390625 C3.49730469 52.20144531 3.50632813 53.39898437 3.515625 54.6328125 C3.52722656 55.82777344 3.53882813 57.02273438 3.55078125 58.25390625 C3.453125 61.1953125 3.453125 61.1953125 2.453125 62.1953125 C-0.07736902 62.26844817 -2.57992337 62.28778777 -5.109375 62.2578125 C-6.17575195 62.25104492 -6.17575195 62.25104492 -7.26367188 62.24414062 C-9.02477513 62.23232114 -10.78583536 62.21438513 -12.546875 62.1953125 C-12.64830062 54.45413402 -12.71835169 46.71312692 -12.76660156 38.97143555 C-12.78671598 36.33790687 -12.81401104 33.70442284 -12.84863281 31.07104492 C-12.89715588 27.28553243 -12.91984612 23.5006105 -12.9375 19.71484375 C-12.95814514 18.53759232 -12.97879028 17.36034088 -13.00006104 16.14741516 C-13.00229567 8.00570814 -13.00229567 8.00570814 -10.77246094 4.0378418 C-7.14369213 1.0336384 -4.72504411 -0.06385195 0 0 Z " fill="#F1F1F1" transform="translate(216.546875,328.8046875)"/>
<path d="M0 0 C4.29 0 8.58 0 13 0 C15.78492342 2.78492342 15.94899118 5.88924462 16.625 9.625 C17.305625 13.275625 17.305625 13.275625 18 17 C18.33 11.39 18.66 5.78 19 0 C23.95 0 28.9 0 34 0 C34 19.8 34 39.6 34 60 C29.38 60 24.76 60 20 60 C19.79503906 58.79601562 19.59007812 57.59203125 19.37890625 56.3515625 C19.10693641 54.77601308 18.83479193 53.20049379 18.5625 51.625 C18.42779297 50.8309375 18.29308594 50.036875 18.15429688 49.21875 C17.48582411 44.98605017 17.48582411 44.98605017 16 41 C15.67 47.6 15.34 54.2 15 61 C10.05 61 5.1 61 0 61 C0 40.87 0 20.74 0 0 Z " fill="#F6F6F6" transform="translate(409,330)"/>
<path d="M0 0 C3.6815625 -0.0309375 3.6815625 -0.0309375 7.4375 -0.0625 C8.21150146 -0.071604 8.98550293 -0.08070801 9.78295898 -0.09008789 C11.52221717 -0.09724913 13.26145304 -0.05024702 15 0 C16 1 16 1 16.12025452 3.36012268 C16.11803391 4.40603073 16.11581329 5.45193878 16.11352539 6.52954102 C16.11344986 7.71068985 16.11337433 8.89183868 16.11329651 10.10877991 C16.10813522 11.3941716 16.10297394 12.67956329 16.09765625 14.00390625 C16.0962413 15.31205795 16.09482635 16.62020966 16.09336853 17.96800232 C16.0895441 21.45162859 16.07971446 24.93521339 16.06866455 28.41882324 C16.05844882 31.97126708 16.05387056 35.52371759 16.04882812 39.07617188 C16.03809212 46.05080004 16.02049593 53.02539376 16 60 C11.38 60 6.76 60 2 60 C1.33089194 56.87550432 0.66460784 53.75045306 0 50.625 C-0.28617187 49.29082031 -0.28617187 49.29082031 -0.578125 47.9296875 C-0.84882813 46.65351563 -0.84882813 46.65351563 -1.125 45.3515625 C-1.29257812 44.56604004 -1.46015625 43.78051758 -1.6328125 42.97119141 C-2 41 -2 41 -2 39 C-2.66 39 -3.32 39 -4 39 C-4 45.93 -4 52.86 -4 60 C-8.62 60 -13.24 60 -18 60 C-18 40.53 -18 21.06 -18 1 C-13.38 1 -8.76 1 -4 1 C-3.01 5.62 -2.02 10.24 -1 15 C-0.67 10.05 -0.34 5.1 0 0 Z " fill="#F5F5F5" transform="translate(343,330)"/>
<path d="M0 0 C0.78181641 -0.02835937 1.56363281 -0.05671875 2.36914062 -0.0859375 C8.27412009 -0.1056701 11.94659249 1.35521872 16.1875 5.5 C19.56264025 10.03707378 18.30405025 16.13868869 18.1875 21.5 C12.9075 21.5 7.6275 21.5 2.1875 21.5 C2.1875 19.52 2.1875 17.54 2.1875 15.5 C1.1975 15.5 0.2075 15.5 -0.8125 15.5 C-0.8125 18.14 -0.8125 20.78 -0.8125 23.5 C0.18330078 23.46519531 0.18330078 23.46519531 1.19921875 23.4296875 C10.68820758 23.23575196 10.68820758 23.23575196 14.1875 25.5 C19.172545 31.01124419 18.72634355 36.3921887 18.5625 43.5625 C18.56121094 44.63822266 18.55992187 45.71394531 18.55859375 46.82226562 C18.45436902 56.16195947 18.45436902 56.16195947 16.1875 60.5 C10.78171521 62.80479196 5.37905257 62.86591164 -0.4375 62.875 C-1.27023437 62.89949219 -2.10296875 62.92398438 -2.9609375 62.94921875 C-6.99769562 62.96850263 -9.24679728 62.83882458 -12.7734375 60.7265625 C-16.89176726 56.22953575 -17.08301807 52.71752853 -16.9375 46.75 C-16.89625 44.3575 -16.855 41.965 -16.8125 39.5 C-11.5325 39.5 -6.2525 39.5 -0.8125 39.5 C-0.8125 42.47 -0.8125 45.44 -0.8125 48.5 C0.1775 48.5 1.1675 48.5 2.1875 48.5 C2.1875 44.87 2.1875 41.24 2.1875 37.5 C-1.7725 37.5 -5.7325 37.5 -9.8125 37.5 C-9.8125 36.84 -9.8125 36.18 -9.8125 35.5 C-10.43125 35.231875 -11.05 34.96375 -11.6875 34.6875 C-13.8125 33.5 -13.8125 33.5 -15.8125 30.5 C-16.24727196 26.88965363 -16.13669144 23.25869957 -16.125 19.625 C-16.14111328 18.63113281 -16.15722656 17.63726562 -16.17382812 16.61328125 C-16.17814173 10.16874893 -15.62314436 6.55883969 -11.17578125 1.71875 C-7.52663332 -0.16312463 -4.04794207 -0.01315335 0 0 Z " fill="#EFEFEF" transform="translate(506.8125,328.5)"/>
<path d="M0 0 C9.9 0 19.8 0 30 0 C30 3.96 30 7.92 30 12 C25.05 12 20.1 12 15 12 C15 15.63 15 19.26 15 23 C19.62 23 24.24 23 29 23 C29.09765625 33.05859375 29.09765625 33.05859375 29 36 C28 37 28 37 25.05859375 37.09765625 C23.86363281 37.08605469 22.66867187 37.07445312 21.4375 37.0625 C19.64119141 37.04896484 19.64119141 37.04896484 17.80859375 37.03515625 C16.88175781 37.02355469 15.95492188 37.01195312 15 37 C15 39.97 15 42.94 15 46 C19.95 46 24.9 46 30 46 C30 50.29 30 54.58 30 59 C20.1 59 10.2 59 0 59 C0 39.53 0 20.06 0 0 Z " fill="#FAFAFA" transform="translate(286,331)"/>
<path d="M0 0 C9.9 0 19.8 0 30 0 C30 3.96 30 7.92 30 12 C25.05 12 20.1 12 15 12 C15 15.63 15 19.26 15 23 C19.62 23 24.24 23 29 23 C29 27.29 29 31.58 29 36 C24.05 36 19.1 36 14 36 C14.33 39.3 14.66 42.6 15 46 C19.95 46.33 24.9 46.66 30 47 C30 50.96 30 54.92 30 59 C20.1 59 10.2 59 0 59 C0 39.53 0 20.06 0 0 Z " fill="#F9F9F9" transform="translate(452,331)"/>
<path d="M0 0 C11.55 0 23.1 0 35 0 C35 4.29 35 8.58 35 13 C34.67 13.33 34.34 13.66 34 14 C31.03 14 28.06 14 25 14 C25 29.51 25 45.02 25 61 C19.72 61 14.44 61 9 61 C9 45.49 9 29.98 9 14 C6.03 14 3.06 14 0 14 C0 9.38 0 4.76 0 0 Z " fill="#EBEBEB" transform="translate(533,330)"/>
<path d="M0 0 C4.82380802 -0.0246519 9.64757967 -0.04283693 14.47143555 -0.05493164 C16.11369464 -0.05997174 17.75594923 -0.06680378 19.39819336 -0.07543945 C21.75375479 -0.08751926 24.10925709 -0.09323139 26.46484375 -0.09765625 C27.20339096 -0.10281754 27.94193817 -0.10797882 28.7028656 -0.11329651 C30.46898088 -0.1134925 32.23497146 -0.06194719 34 0 C35 1 35 1 35.09765625 3.94140625 C35.08605469 5.13636719 35.07445312 6.33132813 35.0625 7.5625 C35.05347656 8.76003906 35.04445312 9.95757812 35.03515625 11.19140625 C35.02355469 12.11824219 35.01195312 13.04507812 35 14 C32.03 14 29.06 14 26 14 C26.00785522 16.08235962 26.00785522 16.08235962 26.01586914 18.20678711 C26.03391346 23.33731445 26.04542992 28.46783897 26.05493164 33.59838867 C26.05997317 35.82267732 26.06680623 38.04696263 26.07543945 40.27124023 C26.08751298 43.46078309 26.09322996 46.65028229 26.09765625 49.83984375 C26.10281754 50.84087631 26.10797882 51.84190887 26.11329651 52.87327576 C26.11340981 54.25459435 26.11340981 54.25459435 26.11352539 55.66381836 C26.115746 56.47878281 26.11796661 57.29374725 26.12025452 58.13340759 C26 60 26 60 25 61 C20.05 61 15.1 61 10 61 C10 45.16 10 29.32 10 13 C6.7 13 3.4 13 0 13 C0 8.71 0 4.42 0 0 Z " fill="#F7F7F7" transform="translate(161,330)"/>
<path d="M0 0 C1.0374939 0.00303635 1.0374939 0.00303635 2.09594727 0.00613403 C2.80243408 0.00517731 3.5089209 0.00422058 4.23681641 0.00323486 C5.7331552 0.00255321 7.22949694 0.00440649 8.72583008 0.00857544 C11.02374884 0.01392396 13.32147213 0.00863003 15.61938477 0.00222778 C17.06990603 0.00288857 18.52042718 0.00416974 19.97094727 0.00613403 C20.66260986 0.0041098 21.35427246 0.00208557 22.06689453 0 C26.91849503 0.0239943 26.91849503 0.0239943 28.03344727 1.13894653 C28.10603673 3.32534106 28.11718509 5.51395042 28.09594727 7.70144653 C28.08692383 8.8989856 28.07790039 10.09652466 28.06860352 11.33035278 C28.05700195 12.25718872 28.04540039 13.18402466 28.03344727 14.13894653 C25.06344727 14.13894653 22.09344727 14.13894653 19.03344727 14.13894653 C19.04130249 16.22130615 19.04130249 16.22130615 19.04931641 18.34573364 C19.06736073 23.47626099 19.07887718 28.60678551 19.08837891 33.73733521 C19.09342043 35.96162385 19.10025349 38.18590916 19.10888672 40.41018677 C19.12096025 43.59972962 19.12667722 46.78922882 19.13110352 49.97879028 C19.1362648 50.97982285 19.14142609 51.98085541 19.14674377 53.01222229 C19.14685707 54.39354088 19.14685707 54.39354088 19.14697266 55.80276489 C19.14919327 56.61772934 19.15141388 57.43269379 19.15370178 58.27235413 C19.03344727 60.13894653 19.03344727 60.13894653 18.03344727 61.13894653 C13.08344727 61.13894653 8.13344727 61.13894653 3.03344727 61.13894653 C3.03344727 45.62894653 3.03344727 30.11894653 3.03344727 14.13894653 C0.06344727 14.13894653 -2.90655273 14.13894653 -5.96655273 14.13894653 C-5.99341212 11.99318017 -6.01288361 9.84732008 -6.02905273 7.70144653 C-6.0406543 6.5064856 -6.05225586 5.31152466 -6.06420898 4.08035278 C-5.90461688 -0.72656134 -4.35956577 0.02156087 0 0 Z " fill="#F6F6F6" transform="translate(372.966552734375,329.8610534667969)"/>
<path d="M0 0 C4.95 0 9.9 0 15 0 C15 15.51 15 31.02 15 47 C19.95 47 24.9 47 30 47 C30 50.96 30 54.92 30 59 C20.1 59 10.2 59 0 59 C0 39.53 0 20.06 0 0 Z " fill="#F7F7F7" transform="translate(247,331)"/>
<path d="M0 0 C4.82380802 -0.0246519 9.64757967 -0.04283693 14.47143555 -0.05493164 C16.11369464 -0.05997174 17.75594923 -0.06680378 19.39819336 -0.07543945 C21.75375479 -0.08751926 24.10925709 -0.09323139 26.46484375 -0.09765625 C27.20339096 -0.10281754 27.94193817 -0.10797882 28.7028656 -0.11329651 C30.46898088 -0.1134925 32.23497146 -0.06194719 34 0 C35 1 35 1 35.09765625 3.94140625 C35.08605469 5.13636719 35.07445312 6.33132813 35.0625 7.5625 C35.05347656 8.76003906 35.04445312 9.95757812 35.03515625 11.19140625 C35.02355469 12.11824219 35.01195312 13.04507812 35 14 C32.03 14 29.06 14 26 14 C26 29.18 26 44.36 26 60 C25.67 60 25.34 60 25 60 C25 44.49 25 28.98 25 13 C27.64 13 30.28 13 33 13 C33 9.37 33 5.74 33 2 C22.77 2 12.54 2 2 2 C2 5.63 2 9.26 2 13 C1.34 13 0.68 13 0 13 C0 8.71 0 4.42 0 0 Z " fill="#A9A9A9" transform="translate(161,330)"/>
<path d="M0 0 C1.0374939 0.00303635 1.0374939 0.00303635 2.09594727 0.00613403 C2.80243408 0.00517731 3.5089209 0.00422058 4.23681641 0.00323486 C5.7331552 0.00255321 7.22949694 0.00440649 8.72583008 0.00857544 C11.02374884 0.01392396 13.32147213 0.00863003 15.61938477 0.00222778 C17.06990603 0.00288857 18.52042718 0.00416974 19.97094727 0.00613403 C20.66260986 0.0041098 21.35427246 0.00208557 22.06689453 0 C26.91849503 0.0239943 26.91849503 0.0239943 28.03344727 1.13894653 C28.10603673 3.32534106 28.11718509 5.51395042 28.09594727 7.70144653 C28.08692383 8.8989856 28.07790039 10.09652466 28.06860352 11.33035278 C28.05700195 12.25718872 28.04540039 13.18402466 28.03344727 14.13894653 C25.06344727 14.13894653 22.09344727 14.13894653 19.03344727 14.13894653 C19.03344727 29.31894653 19.03344727 44.49894653 19.03344727 60.13894653 C18.70344727 60.13894653 18.37344727 60.13894653 18.03344727 60.13894653 C18.03344727 44.62894653 18.03344727 29.11894653 18.03344727 13.13894653 C20.67344727 13.13894653 23.31344727 13.13894653 26.03344727 13.13894653 C26.03344727 9.50894653 26.03344727 5.87894653 26.03344727 2.13894653 C15.80344727 2.13894653 5.57344727 2.13894653 -4.96655273 2.13894653 C-4.96655273 5.76894653 -4.96655273 9.39894653 -4.96655273 13.13894653 C-2.32655273 13.13894653 0.31344727 13.13894653 3.03344727 13.13894653 C3.03344727 13.46894653 3.03344727 13.79894653 3.03344727 14.13894653 C0.06344727 14.13894653 -2.90655273 14.13894653 -5.96655273 14.13894653 C-5.99341212 11.99318017 -6.01288361 9.84732008 -6.02905273 7.70144653 C-6.0406543 6.5064856 -6.05225586 5.31152466 -6.06420898 4.08035278 C-5.90461688 -0.72656134 -4.35956577 0.02156087 0 0 Z " fill="#AEAEAE" transform="translate(372.966552734375,329.8610534667969)"/>
<path d="M0 0 C4.62 0 9.24 0 14 0 C14 0.33 14 0.66 14 1 C9.71 1 5.42 1 1 1 C1 20.47 1 39.94 1 60 C5.62 60 10.24 60 15 60 C15 53.07 15 46.14 15 39 C15.66 39 16.32 39 17 39 C19.11670277 46.00242552 20.54034292 52.69303751 21 60 C20.01 58.68 19.02 57.36 18 56 C17.01 58.475 17.01 58.475 16 61 C10.72 61 5.44 61 0 61 C0 40.87 0 20.74 0 0 Z " fill="#6E6E6E" transform="translate(324,330)"/>
<path d="M0 0 C1.26650391 0.00966797 1.26650391 0.00966797 2.55859375 0.01953125 C3.43128906 0.03628906 4.30398437 0.05304688 5.203125 0.0703125 C6.53537109 0.08384766 6.53537109 0.08384766 7.89453125 0.09765625 C10.08100558 0.12116673 12.26692594 0.15402751 14.453125 0.1953125 C14.453125 0.5253125 14.453125 0.8553125 14.453125 1.1953125 C13.30714844 1.19789063 12.16117188 1.20046875 10.98046875 1.203125 C1.33264475 1.03146386 1.33264475 1.03146386 -7.046875 5.0703125 C-10.21544752 8.42428022 -10.67291457 11.62927107 -10.75219727 16.12573242 C-10.7821151 17.62694893 -10.7821151 17.62694893 -10.81263733 19.15849304 C-10.82934982 20.23669815 -10.84606232 21.31490326 -10.86328125 22.42578125 C-10.88406235 23.53133865 -10.90484344 24.63689606 -10.92625427 25.7759552 C-10.99169832 29.3115104 -11.05061103 32.84714056 -11.109375 36.3828125 C-11.1525651 38.77800258 -11.19617954 41.17318505 -11.24023438 43.56835938 C-11.34737452 49.44393338 -11.44865668 55.31958286 -11.546875 61.1953125 C-6.926875 61.1953125 -2.306875 61.1953125 2.453125 61.1953125 C2.453125 61.5253125 2.453125 61.8553125 2.453125 62.1953125 C-2.496875 62.1953125 -7.446875 62.1953125 -12.546875 62.1953125 C-12.64575617 54.45405811 -12.71835142 46.71317141 -12.76660156 38.97143555 C-12.78671598 36.33790687 -12.81401104 33.70442284 -12.84863281 31.07104492 C-12.89715588 27.28553243 -12.91984612 23.5006105 -12.9375 19.71484375 C-12.95814514 18.53759232 -12.97879028 17.36034088 -13.00006104 16.14741516 C-13.00229567 8.00570814 -13.00229567 8.00570814 -10.77246094 4.0378418 C-7.14369213 1.0336384 -4.72504411 -0.06385195 0 0 Z " fill="#929292" transform="translate(216.546875,328.8046875)"/>
<path d="M0 0 C4.95 0 9.9 0 15 0 C15 19.8 15 39.6 15 60 C14.67 60 14.34 60 14 60 C14 40.53 14 21.06 14 1 C9.71 1 5.42 1 1 1 C1 7.93 1 14.86 1 22 C0.01 21.67 -0.98 21.34 -2 21 C-3.60725635 17.78548731 -3.05748185 14.56387464 -3 11 C-2.67 11 -2.34 11 -2 11 C-1.67 12.98 -1.34 14.96 -1 17 C-0.67 11.39 -0.34 5.78 0 0 Z " fill="#D0D0D0" transform="translate(428,330)"/>
<path d="M0 0 C0.66 0 1.32 0 2 0 C0.67698806 4.42006261 -0.62554614 8.61956342 -3.0625 12.5625 C-4.68026116 15.43272142 -5.42294799 17.26275368 -6.125 20.375 C-6.41375 21.57125 -6.7025 22.7675 -7 24 C-7.66 24.33 -8.32 24.66 -9 25 C-9.33 23.68 -9.66 22.36 -10 21 C-11.98 21.99 -11.98 21.99 -14 23 C-12.02872519 17.70742933 -9.12681623 13.35928793 -6 8.6875 C-5.4534375 7.85154297 -4.906875 7.01558594 -4.34375 6.15429688 C-3.8178125 5.36474609 -3.291875 4.57519531 -2.75 3.76171875 C-2.27046875 3.03944092 -1.7909375 2.31716309 -1.296875 1.57299805 C-0.86890625 1.05390869 -0.4409375 0.53481934 0 0 Z " fill="#5C5C5C" transform="translate(379,133)"/>
<path d="M0 0 C0.66 0 1.32 0 2 0 C2 3.3 2 6.6 2 10 C6.62 10 11.24 10 16 10 C16.09765625 20.05859375 16.09765625 20.05859375 16 23 C15 24 15 24 12.05859375 24.09765625 C10.86363281 24.08605469 9.66867187 24.07445312 8.4375 24.0625 C6.64119141 24.04896484 6.64119141 24.04896484 4.80859375 24.03515625 C3.88175781 24.02355469 2.95492188 24.01195312 2 24 C2 26.97 2 29.94 2 33 C1.67 33 1.34 33 1 33 C0.97311849 31.35425434 0.95365877 29.70838587 0.9375 28.0625 C0.92589844 27.14597656 0.91429687 26.22945313 0.90234375 25.28515625 C1 23 1 23 2 22 C4.01964199 21.92755947 6.04167124 21.91622812 8.0625 21.9375 C9.71958984 21.95103516 9.71958984 21.95103516 11.41015625 21.96484375 C12.26480469 21.97644531 13.11945313 21.98804688 14 22 C14 18.37 14 14.74 14 11 C12.60974609 11.01740234 12.60974609 11.01740234 11.19140625 11.03515625 C9.99386719 11.04417969 8.79632813 11.05320312 7.5625 11.0625 C6.36753906 11.07410156 5.17257812 11.08570313 3.94140625 11.09765625 C1 11 1 11 0 10 C-0.07205511 8.31391034 -0.08386068 6.62499341 -0.0625 4.9375 C-0.05347656 4.01839844 -0.04445313 3.09929687 -0.03515625 2.15234375 C-0.02355469 1.44207031 -0.01195312 0.73179687 0 0 Z " fill="#BABABA" transform="translate(299,344)"/>
<path d="M0 0 C1 2 1 2 0.0625 5.125 C-0.288125 6.07375 -0.63875 7.0225 -1 8 C-0.01 8.33 0.98 8.66 2 9 C0.68 11.64 -0.64 14.28 -2 17 C-2.66 17 -3.32 17 -4 17 C-4.268125 17.721875 -4.53625 18.44375 -4.8125 19.1875 C-5.99354833 21.98471974 -7.33361698 24.46419975 -9 27 C-9.33 27 -9.66 27 -10 27 C-9.58676544 22.04118529 -8.46499335 18.6231537 -6.1171875 14.26171875 C-4.35916565 10.70264654 -3.12595428 6.97039348 -1.83203125 3.22265625 C-1 1 -1 1 0 0 Z " fill="#9D9D9D" transform="translate(345,175)"/>
<path d="M0 0 C0.66 0.33 1.32 0.66 2 1 C2 5.62 2 10.24 2 15 C-5.08645514 16.72099625 -10.79935011 17.13371935 -18 16 C-18 13.36 -18 10.72 -18 8 C-17.01 8 -16.02 8 -15 8 C-15 9.98 -15 11.96 -15 14 C-9.72 14 -4.44 14 1 14 C0.67 9.38 0.34 4.76 0 0 Z " fill="#262626" transform="translate(524,336)"/>
<path d="M0 0 C0.99 0 1.98 0 3 0 C3 6.27 3 12.54 3 19 C2.01 19 1.02 19 0 19 C0 12.73 0 6.46 0 0 Z " fill="#2B2B2B" transform="translate(220,344)"/>
<path d="M0 0 C2.73527802 3.64703737 3.44085698 4.81369383 4.1875 9 C4.34605469 9.845625 4.50460937 10.69125 4.66796875 11.5625 C5 14 5 14 5 18 C4.34 18 3.68 18 3 18 C2.67 16.68 2.34 15.36 2 14 C1.67 16.31 1.34 18.62 1 21 C0.67 21 0.34 21 0 21 C0 14.07 0 7.14 0 0 Z " fill="#8F8F8F" transform="translate(424,369)"/>
<path d="M0 0 C4.95 0 9.9 0 15 0 C15 0.33 15 0.66 15 1 C10.38 1 5.76 1 1 1 C1 7.93 1 14.86 1 22 C0.01 21.67 -0.98 21.34 -2 21 C-3.60725635 17.78548731 -3.05748185 14.56387464 -3 11 C-2.67 11 -2.34 11 -2 11 C-1.67 12.98 -1.34 14.96 -1 17 C-0.67 11.39 -0.34 5.78 0 0 Z " fill="#A0A0A0" transform="translate(428,330)"/>
<path d="M0 0 C0.85078125 0.00322266 1.7015625 0.00644531 2.578125 0.00976562 C3.46757812 0.01814453 4.35703125 0.02652344 5.2734375 0.03515625 C6.170625 0.03966797 7.0678125 0.04417969 7.9921875 0.04882812 C10.21100398 0.06063034 12.42968768 0.0770947 14.6484375 0.09765625 C14.6484375 0.42765625 14.6484375 0.75765625 14.6484375 1.09765625 C13.50246094 1.10023438 12.35648438 1.1028125 11.17578125 1.10546875 C1.54913834 0.92223949 1.54913834 0.92223949 -6.7890625 4.97265625 C-8.57503436 6.90948676 -9.87865396 8.88829344 -11.3515625 11.09765625 C-11.6640625 8.34765625 -11.6640625 8.34765625 -11.3515625 5.09765625 C-7.67183721 1.51476584 -5.06285435 -0.03375236 0 0 Z " fill="#989898" transform="translate(216.3515625,328.90234375)"/>
<path d="M0 0 C4.29 0 8.58 0 13 0 C13 0.33 13 0.66 13 1 C9.04 1 5.08 1 1 1 C1 8.59 1 16.18 1 24 C0.01 24 -0.98 24 -2 24 C-2 22.68 -2 21.36 -2 20 C-1.34 20 -0.68 20 0 20 C0 13.4 0 6.8 0 0 Z " fill="#E9E9E9" transform="translate(344,331)"/>
<path d="M0 0 C0.66 0.33 1.32 0.66 2 1 C0.15741754 2.92863714 -1.34878977 3.92009594 -4.01757812 4.24755859 C-6.43427459 4.29505495 -8.83398212 4.26111304 -11.25 4.1875 C-12.09046875 4.17396484 -12.9309375 4.16042969 -13.796875 4.14648438 C-15.86485938 4.11123464 -17.93251271 4.0574302 -20 4 C-20.33 3.34 -20.66 2.68 -21 2 C-19.73542969 1.93941406 -18.47085937 1.87882812 -17.16796875 1.81640625 C-15.50780129 1.73199096 -13.84764563 1.64734345 -12.1875 1.5625 C-11.35412109 1.52318359 -10.52074219 1.48386719 -9.66210938 1.44335938 C-8.85966797 1.40146484 -8.05722656 1.35957031 -7.23046875 1.31640625 C-6.12288208 1.26141968 -6.12288208 1.26141968 -4.99291992 1.20532227 C-2.792505 1.05157859 -2.792505 1.05157859 0 0 Z " fill="#444444" transform="translate(519,389)"/>
<path d="M0 0 C0.99 0 1.98 0 3 0 C3 4.29 3 8.58 3 13 C1.68 13.33 0.36 13.66 -1 14 C-0.67 9.38 -0.34 4.76 0 0 Z " fill="#252525" transform="translate(220,377)"/>
<path d="M0 0 C0.66 0 1.32 0 2 0 C-0.89066059 9.59453303 -0.89066059 9.59453303 -4 13 C-4.33 12.34 -4.66 11.68 -5 11 C-5.99 11.495 -5.99 11.495 -7 12 C-5.50328459 7.50985376 -3.16631659 3.52151236 0 0 Z " fill="#7A7A7A" transform="translate(379,133)"/>
<path d="M0 0 C-0.60183749 2.02045442 -1.27306096 4.02111039 -2 6 C-2.99 6.495 -2.99 6.495 -4 7 C-3.67 5.35 -3.34 3.7 -3 2 C-4.44632812 2.55880859 -4.44632812 2.55880859 -5.921875 3.12890625 C-7.19770275 3.60734166 -8.47375647 4.08517479 -9.75 4.5625 C-10.38421875 4.80935547 -11.0184375 5.05621094 -11.671875 5.31054688 C-15.25914326 6.63708878 -17.36780155 7.14462959 -21 6 C-18.25262623 4.99222971 -15.50250048 3.99358554 -12.75 3 C-11.97269531 2.71382812 -11.19539063 2.42765625 -10.39453125 2.1328125 C-9.64042969 1.86210937 -8.88632812 1.59140625 -8.109375 1.3125 C-7.41811523 1.06113281 -6.72685547 0.80976563 -6.01464844 0.55078125 C-4 0 -4 0 0 0 Z " fill="#515151" transform="translate(381,208)"/>
<path d="M0 0 C0.66 0.33 1.32 0.66 2 1 C-4.67862176 4.01651083 -10.63927766 6.57534294 -18 7 C-17.625 4.5625 -17.625 4.5625 -17 2 C-16.34 1.67 -15.68 1.34 -15 1 C-15.33 2.32 -15.66 3.64 -16 5 C-13.89569999 4.35460128 -11.79156446 3.70866624 -9.6875 3.0625 C-7.92986328 2.52302734 -7.92986328 2.52302734 -6.13671875 1.97265625 C-4.08446023 1.33627721 -2.03839863 0.67946621 0 0 Z " fill="#898989" transform="translate(319,249)"/>
<path d="M0 0 C-0.28109113 1.64767247 -0.57518526 3.29313145 -0.875 4.9375 C-1.03742188 5.85402344 -1.19984375 6.77054688 -1.3671875 7.71484375 C-1.57601563 8.46894531 -1.78484375 9.22304687 -2 10 C-2.99 10.495 -2.99 10.495 -4 11 C-3.67 8.36 -3.34 5.72 -3 3 C-5.64 3.33 -8.28 3.66 -11 4 C-7.32740617 1.55160412 -4.45351799 0 0 0 Z " fill="#999999" transform="translate(333,245)"/>
<path d="M0 0 C0.66 0 1.32 0 2 0 C3.35439668 2.70879335 3.06501451 5.00933268 3 8 C2.67 8 2.34 8 2 8 C1.67 12.29 1.34 16.58 1 21 C0.67 21 0.34 21 0 21 C0 14.07 0 7.14 0 0 Z " fill="#A1A1A1" transform="translate(339,369)"/>
<path d="M0 0 C0.6875 1.625 0.6875 1.625 1 4 C-0.4375 7.25 -0.4375 7.25 -2 10 C-2.99 9.67 -3.98 9.34 -5 9 C-3.375 2.25 -3.375 2.25 0 0 Z " fill="#222222" transform="translate(374,143)"/>
<path d="M0 0 C0.66 0 1.32 0 2 0 C2 0.99 2 1.98 2 3 C1.34 3 0.68 3 0 3 C0 9.93 0 16.86 0 24 C-0.33 24 -0.66 24 -1 24 C-1.02887236 20.18751574 -1.04675492 16.3750593 -1.0625 12.5625 C-1.07087891 11.47388672 -1.07925781 10.38527344 -1.08789062 9.26367188 C-1.09111328 8.22919922 -1.09433594 7.19472656 -1.09765625 6.12890625 C-1.10289307 5.17056885 -1.10812988 4.21223145 -1.11352539 3.22485352 C-1 1 -1 1 0 0 Z " fill="#EAEAEA" transform="translate(339,366)"/>
<path d="M0 0 C1 2 1 2 0.0625 5.125 C-0.288125 6.07375 -0.63875 7.0225 -1 8 C-0.01 8.33 0.98 8.66 2 9 C0.625 11 0.625 11 -1 13 C-1.66 13 -2.32 13 -3 13 C-2.88490339 11.58249437 -2.75746342 10.16598831 -2.625 8.75 C-2.55539062 7.96109375 -2.48578125 7.1721875 -2.4140625 6.359375 C-1.98492887 3.914123 -1.21399362 2.15163097 0 0 Z " fill="#C7C7C7" transform="translate(345,175)"/>
<path d="M0 0 C2.87579981 4.31369972 4 7.80734761 4 13 C3.34 13 2.68 13 2 13 C0.21590198 9.93753253 -0.22880021 7.77920727 -0.125 4.25 C-0.10695313 3.45078125 -0.08890625 2.6515625 -0.0703125 1.828125 C-0.04710937 1.22484375 -0.02390625 0.6215625 0 0 Z " fill="#4A4A4A" transform="translate(425,374)"/>
<path d="M0 0 C0.99 0.33 1.98 0.66 3 1 C3 2.32 3 3.64 3 5 C2.38125 5.103125 1.7625 5.20625 1.125 5.3125 C-1.36526484 5.87525373 -1.36526484 5.87525373 -3 9 C-2.44271087 5.65626525 -1.64826111 2.96687001 0 0 Z " fill="#9C9C9C" transform="translate(375,105)"/>
<path d="M0 0 C0.33 0.66 0.66 1.32 1 2 C1.60328125 1.84402344 2.2065625 1.68804687 2.828125 1.52734375 C3.62734375 1.33269531 4.4265625 1.13804687 5.25 0.9375 C6.03890625 0.74027344 6.8278125 0.54304687 7.640625 0.33984375 C10.10394822 -0.01497267 11.65604132 0.23122456 14 1 C12.25183142 1.50636607 10.50137737 2.00484619 8.75 2.5 C7.77546875 2.7784375 6.8009375 3.056875 5.796875 3.34375 C3 4 3 4 -1 4 C-0.67 2.68 -0.34 1.36 0 0 Z " fill="#898989" transform="translate(345,215)"/>
<path d="M0 0 C0.66 0 1.32 0 2 0 C1.67 2.31 1.34 4.62 1 7 C0.34 6.34 -0.32 5.68 -1 5 C-1.99 5.495 -1.99 5.495 -3 6 C-1.125 1.125 -1.125 1.125 0 0 Z " fill="#565656" transform="translate(375,139)"/>
<path d="M0 0 C0.33 0 0.66 0 1 0 C1.33 2.64 1.66 5.28 2 8 C2.66 8 3.32 8 4 8 C4 8.99 4 9.98 4 11 C3.01 10.67 2.02 10.34 1 10 C-0.60725635 6.78548731 -0.05748185 3.56387464 0 0 Z " fill="#B8B8B8" transform="translate(425,341)"/>
</svg>
