<?xml version="1.0" encoding="UTF-8"?>
<svg version="1.1" xmlns="http://www.w3.org/2000/svg" width="559" height="446">
<path d="M0 0 C0.99 0 1.98 0 3 0 C9.04272329 15.02889347 14.98131393 30.09752477 20.89013672 45.17944336 C21.91737044 47.79000894 22.95810109 50.39525272 24 53 C26.64 49.7 29.28 46.4 32 43 C36 44 36 44 37.26098633 45.54370117 C37.61443115 46.20345947 37.96787598 46.86321777 38.33203125 47.54296875 C38.9357959 48.64898437 38.9357959 48.64898437 39.55175781 49.77734375 C39.96780273 50.57269531 40.38384766 51.36804688 40.8125 52.1875 C41.25045898 52.99960938 41.68841797 53.81171875 42.13964844 54.6484375 C45.36681657 60.67248468 48.41470431 66.77960737 51.42578125 72.9140625 C52.82477167 75.6565003 54.31703721 78.25966863 55.9375 80.875 C58.42553334 84.90417734 60.55267061 89.05940538 62.625 93.3125 C66.76807198 101.7864988 71.44325443 109.92961634 76.16796875 118.08984375 C80.44203493 125.47495506 84.53361826 132.94569145 88.5 140.5 C91.29251077 145.81837656 94.12166993 151.09085278 97.22265625 156.23828125 C98 158 98 158 98 162 C50.15 162 2.3 162 -47 162 C-47 157.24758863 -45.83267669 155.65177054 -43.3125 151.6875 C-42.94672852 151.10790527 -42.58095703 150.52831055 -42.20410156 149.93115234 C-40.29943345 146.9363013 -38.33623003 143.99601875 -36.25 141.125 C-34.36581964 138.50808283 -32.78179758 135.88560413 -31.22265625 133.0703125 C-28.99635196 129.30053207 -26.48217654 125.71593469 -24.03125 122.08984375 C-21.60553794 118.39996253 -19.39208758 114.61275894 -17.2265625 110.765625 C-16.61941406 109.89164063 -16.61941406 109.89164063 -16 109 C-15.34 109 -14.68 109 -14 109 C-13.87689453 108.40977051 -13.75378906 107.81954102 -13.62695312 107.21142578 C-12.63417588 103.70964373 -10.49857908 100.87596239 -8.5 97.875 C-5.5723807 93.54205916 -5.5723807 93.54205916 -3 89 C-2.34 89 -1.68 89 -1 89 C-0.690625 88.21625 -0.38125 87.4325 -0.0625 86.625 C1 84 1 84 2 82 C-4.94945668 83.80576433 -11.71800207 85.87653759 -18.46875 88.328125 C-21 89 -21 89 -24 88 C-23.30086126 83.35118137 -21.62212623 79.30226689 -19.8125 75 C-19.50078857 74.25032959 -19.18907715 73.50065918 -18.86791992 72.72827148 C-16.49387516 67.06347161 -13.9536827 61.49358336 -11.34375 55.93359375 C-9.75779833 52.47123997 -8.33099574 48.96503921 -6.95703125 45.4140625 C-5.70165132 42.24743067 -4.35056392 39.12722125 -3 36 C-3.30703857 36.47832275 -3.61407715 36.95664551 -3.93041992 37.44946289 C-5.34762734 39.65498361 -6.76754632 41.85874647 -8.1875 44.0625 C-8.67025391 44.81466797 -9.15300781 45.56683594 -9.65039062 46.34179688 C-11.95561688 49.91567114 -14.29039636 53.43749426 -16.80078125 56.87109375 C-19.101504 59.8264879 -19.101504 59.8264879 -20 63 C-20.66 63 -21.32 63 -22 63 C-22.2475 63.70125 -22.495 64.4025 -22.75 65.125 C-24.17646349 68.40586602 -25.8540238 71.1386984 -28 74 C-29.485 74.495 -29.485 74.495 -31 75 C-30.42781876 69.42123288 -28.36278771 65.00215593 -26 60 C-23.38622923 54.40636027 -20.89051871 48.8171678 -18.71875 43.03515625 C-15.97052146 35.8401094 -12.9822532 28.7612851 -9.9375 21.6875 C-9.42123047 20.47771484 -8.90496094 19.26792969 -8.37304688 18.02148438 C-5.75221907 11.91512252 -3.05671746 5.90085745 0 0 Z " fill="#060607" transform="translate(288,78)"/>
<path d="M0 0 C0.99 0 1.98 0 3 0 C3.35827881 1.04978027 3.71655762 2.09956055 4.08569336 3.18115234 C5.41304764 7.06917159 6.74225197 10.95655621 8.07202148 14.84375 C8.64772362 16.52749606 9.22292125 18.21141471 9.79760742 19.89550781 C10.62286497 22.313605 11.44992409 24.73107942 12.27734375 27.1484375 C12.53466782 27.9036972 12.79199188 28.65895691 13.05711365 29.43710327 C14.35999964 33.28709863 14.35999964 33.28709863 16 37 C16.66132256 43.82631845 15.19779014 47.36707099 11.375 52.9375 C10.91786621 53.63407715 10.46073242 54.3306543 9.98974609 55.04833984 C8.67588259 57.04353475 7.34033455 59.02253458 6 61 C5.38640625 61.93199219 4.7728125 62.86398438 4.140625 63.82421875 C2.77681863 65.89453305 1.393186 67.94940435 0 70 C-0.79280978 71.18673713 -1.58460045 72.37415623 -2.375 73.5625 C-2.91125 74.366875 -3.4475 75.17125 -4 76 C0.84306776 74.60067099 5.63121164 73.19217601 10.3125 71.3125 C13.65677791 70.12216379 15.55465075 69.8754693 19 70 C16.75580212 78.40538608 13.51006695 86.31265907 10.125 94.3125 C9.08328552 96.78665283 8.0448128 99.26214924 7.0078125 101.73828125 C6.50411133 102.94049316 6.00041016 104.14270508 5.48144531 105.38134766 C3.5852187 110.01316552 1.81467848 114.68751823 0.07373047 119.37963867 C-1 122 -1 122 -3 125 C-5.55630493 125.36076355 -5.55630493 125.36076355 -8.82666016 125.34057617 C-10.04777496 125.34034958 -11.26888977 125.34012299 -12.52700806 125.33988953 C-13.86436323 125.32456852 -15.2017147 125.30892051 -16.5390625 125.29296875 C-17.90383438 125.28737422 -19.26861228 125.28310344 -20.63339233 125.28010559 C-24.22730107 125.2686454 -27.82084667 125.23916871 -31.41461182 125.20599365 C-35.0810454 125.17531771 -38.7475376 125.16160559 -42.4140625 125.14648438 C-49.60954064 125.11429964 -56.80471946 125.06308972 -64 125 C-65 122 -65 122 -63.59375 118.91796875 C-62.9052109 117.66926225 -62.20657751 116.42608881 -61.5 115.1875 C-60.74700773 113.82645455 -59.99574023 112.46445363 -59.24609375 111.1015625 C-58.86565918 110.41352539 -58.48522461 109.72548828 -58.09326172 109.01660156 C-56.49758532 106.07325921 -55.03191692 103.07048287 -53.5625 100.0625 C-50.65801664 94.19385212 -47.50630432 88.50358295 -44.26367188 82.81616211 C-42.07951862 78.96924312 -40.00654801 75.1009626 -38.0625 71.125 C-35.54649474 65.98085553 -32.80114934 60.99214222 -30 56 C-26.71926677 50.14727808 -23.57166811 44.26799259 -20.6171875 38.2421875 C-17.28388118 31.55947193 -13.75484028 24.97633028 -10.25927734 18.37744141 C-9.43313002 16.81772394 -8.60790306 15.25751856 -7.78369141 13.69677734 C-6.67030346 11.58844698 -5.55440049 9.48147124 -4.4375 7.375 C-4.10314941 6.74166748 -3.76879883 6.10833496 -3.42431641 5.45581055 C-1.11527583 1.11527583 -1.11527583 1.11527583 0 0 Z " fill="#090909" transform="translate(239,115)"/>
<path d="M0 0 C1.08152344 -0.02578125 2.16304687 -0.0515625 3.27734375 -0.078125 C4.19644531 0.03015625 5.11554688 0.1384375 6.0625 0.25 C8.0625 3.25 8.0625 3.25 8.0625 7.25 C8.7225 7.25 9.3825 7.25 10.0625 7.25 C9.876875 6.46625 9.69125 5.6825 9.5 4.875 C9.0625 2.25 9.0625 2.25 10.0625 0.25 C14.6825 0.25 19.3025 0.25 24.0625 0.25 C25.27680225 2.6786045 25.18938439 4.22998824 25.19189453 6.94335938 C25.19504669 7.91776978 25.19819885 8.89218018 25.20144653 9.89611816 C25.1994223 10.95133667 25.19739807 12.00655518 25.1953125 13.09375 C25.19626923 14.17378296 25.19722595 15.25381592 25.19821167 16.36657715 C25.19889304 18.65307676 25.19704178 20.93957831 25.19287109 23.22607422 C25.18752226 26.73539556 25.19281758 30.24458891 25.19921875 33.75390625 C25.19855796 35.97135445 25.19727678 38.18880257 25.1953125 40.40625 C25.19733673 41.46146851 25.19936096 42.51668701 25.20144653 43.60388184 C25.19671829 45.06549744 25.19671829 45.06549744 25.19189453 46.55664062 C25.19109894 47.41664673 25.19030334 48.27665283 25.18948364 49.16271973 C25.0625 51.25 25.0625 51.25 24.0625 53.25 C19.7725 53.25 15.4825 53.25 11.0625 53.25 C10.4025 51.6 9.7425 49.95 9.0625 48.25 C8.5675 50.725 8.5675 50.725 8.0625 53.25 C6.50219749 53.47419881 4.9390495 53.67863758 3.375 53.875 C2.50488281 53.99101562 1.63476562 54.10703125 0.73828125 54.2265625 C-2.29277843 54.25311193 -4.17844711 53.43447252 -6.9375 52.25 C-6.96276739 45.00513449 -6.9803318 37.76028026 -6.99243164 30.51538086 C-6.99747356 28.04857967 -7.00430691 25.58178148 -7.01293945 23.11499023 C-7.02501125 19.57795471 -7.03072956 16.04095855 -7.03515625 12.50390625 C-7.04031754 11.39350479 -7.04547882 10.28310333 -7.05079651 9.13905334 C-7.05087204 8.11807053 -7.05094757 7.09708771 -7.05102539 6.04516602 C-7.053246 5.14137711 -7.05546661 4.2375882 -7.05775452 3.30641174 C-6.8060356 -0.99810635 -3.63156714 0.05181784 0 0 Z " fill="#070708" transform="translate(251.9375,246.75)"/>
<path d="M0 0 C1.65322266 0.01740234 1.65322266 0.01740234 3.33984375 0.03515625 C4.99693359 0.04869141 4.99693359 0.04869141 6.6875 0.0625 C7.54214844 0.07410156 8.39679688 0.08570313 9.27734375 0.09765625 C9.93734375 2.07765625 10.59734375 4.05765625 11.27734375 6.09765625 C11.93734375 4.11765625 12.59734375 2.13765625 13.27734375 0.09765625 C15.42311012 0.07079687 17.5689702 0.05132537 19.71484375 0.03515625 C20.90980469 0.02355469 22.10476563 0.01195312 23.3359375 0 C26.27734375 0.09765625 26.27734375 0.09765625 27.27734375 1.09765625 C27.3706808 2.69376607 27.39479747 4.29399053 27.39086914 5.89282227 C27.39079361 6.91380508 27.39071808 7.9347879 27.39064026 8.98670959 C27.38547897 10.09711105 27.38031769 11.20751251 27.375 12.3515625 C27.37358505 13.48214584 27.3721701 14.61272919 27.37071228 15.77757263 C27.36509394 19.4051269 27.35253833 23.03262049 27.33984375 26.66015625 C27.33483111 29.11262932 27.3302678 31.56510335 27.32617188 34.01757812 C27.31511855 40.0442917 27.29836259 46.07096964 27.27734375 52.09765625 C22.42525837 53.8982885 19.38826869 54.11984124 14.27734375 53.09765625 C13.61734375 51.44765625 12.95734375 49.79765625 12.27734375 48.09765625 C11.78234375 50.57265625 11.78234375 50.57265625 11.27734375 53.09765625 C9.52827716 53.29367233 7.77802529 53.47913028 6.02734375 53.66015625 C4.56554687 53.81677734 4.56554687 53.81677734 3.07421875 53.9765625 C0.48271766 54.08876436 -1.25983695 53.78254139 -3.72265625 53.09765625 C-3.74792317 45.71037523 -3.76548785 38.32310527 -3.77758789 30.93579102 C-3.78262988 28.4204873 -3.78946328 25.90518653 -3.7980957 23.38989258 C-3.81016719 19.7833585 -3.81588574 16.17686302 -3.8203125 12.5703125 C-3.82547379 11.43803726 -3.83063507 10.30576202 -3.83595276 9.13917542 C-3.83602829 8.09817184 -3.83610382 7.05716827 -3.83618164 5.98461914 C-3.83840225 5.06306534 -3.84062286 4.14151154 -3.84291077 3.19203186 C-3.65877403 -0.0149287 -3.24614435 0.11643272 0 0 Z " fill="#111111" transform="translate(321.72265625,246.90234375)"/>
<path d="M0 0 C0.71220703 -0.020625 1.42441406 -0.04125 2.15820312 -0.0625 C6.70702317 -0.09616379 9.69299035 0.26366859 13.1875 3.25 C16.68421376 8.60642086 16.58301374 13.29203103 16.48046875 19.4609375 C16.47622391 20.42907379 16.47197906 21.39721008 16.46760559 22.39468384 C16.45087956 25.47174473 16.41323831 28.54813872 16.375 31.625 C16.35994532 33.71743842 16.34625829 35.80988717 16.33398438 37.90234375 C16.30099588 43.01848418 16.24925528 48.13412921 16.1875 53.25 C10.45740397 55.27035877 7.13974257 55.15185493 1.1875 54.25 C0.8575 50.62 0.5275 46.99 0.1875 43.25 C-0.1425 46.88 -0.4725 50.51 -0.8125 54.25 C-11.4375 55.375 -11.4375 55.375 -14.8125 54.25 C-16.23597206 51.40305588 -15.9423048 48.98142158 -15.9453125 45.80078125 C-15.94626923 45.15110886 -15.94722595 44.50143646 -15.94821167 43.83207703 C-15.94889351 42.44753931 -15.94703896 41.06299841 -15.94287109 39.6784668 C-15.9376349 37.61564362 -15.94275614 35.5530497 -15.94921875 33.49023438 C-15.9527906 30.09345965 -15.91782905 26.69892836 -15.85217285 23.30279541 C-15.82542416 21.91873563 -15.80430592 20.53455704 -15.78845215 19.15032959 C-15.75763432 17.11284248 -15.69230129 15.07925211 -15.6171875 13.04296875 C-15.58351074 11.85598389 -15.54983398 10.66899902 -15.51513672 9.44604492 C-14.62309442 5.38846126 -12.96597927 3.86853006 -9.8125 1.25 C-6.69863918 -0.30693041 -3.41505068 0.02432805 0 0 Z M-0.8125 14.25 C-0.8125 19.2 -0.8125 24.15 -0.8125 29.25 C-0.1525 29.25 0.5075 29.25 1.1875 29.25 C1.1875 24.63 1.1875 20.01 1.1875 15.25 C0.5275 14.92 -0.1325 14.59 -0.8125 14.25 Z " fill="#101011" transform="translate(157.8125,245.75)"/>
<path d="M0 0 C1.03543945 -0.0299707 1.03543945 -0.0299707 2.09179688 -0.06054688 C7.22163425 -0.05568447 10.17331686 1.13951907 14.0625 4.4375 C16.34799027 7.59800655 16.27871497 10.35647111 16.1875 14.1875 C16.16945313 15.17234375 16.15140625 16.1571875 16.1328125 17.171875 C16.10960937 17.91953125 16.08640625 18.6671875 16.0625 19.4375 C14.4125 20.0975 12.7625 20.7575 11.0625 21.4375 C11.701875 22.22125 12.34125 23.005 13 23.8125 C16.65901095 28.46942303 16.27834482 32.00765983 16.3125 37.75 C16.333125 38.60529297 16.35375 39.46058594 16.375 40.34179688 C16.40520317 45.21583282 16.23350511 48.47953012 13.0625 52.4375 C8.58305532 56.48345004 4.12508977 56.67015717 -1.69140625 56.59375 C-6.4480157 56.26285543 -10.49137152 54.75599409 -13.9375 51.4375 C-15.20414302 47.90076949 -15.03721289 44.40878945 -15 40.6875 C-14.99097656 39.51703125 -14.98195313 38.3465625 -14.97265625 37.140625 C-14.96105469 36.24859375 -14.94945312 35.3565625 -14.9375 34.4375 C-13.6175 33.7775 -12.2975 33.1175 -10.9375 32.4375 C-10.9375 31.7775 -10.9375 31.1175 -10.9375 30.4375 C-11.9275 30.1075 -12.9175 29.7775 -13.9375 29.4375 C-15.42022172 25.458801 -15.12141947 21.19280507 -15.125 17 C-15.14336914 15.87368164 -15.14336914 15.87368164 -15.16210938 14.72460938 C-15.17304251 10.5809521 -15.1386792 7.0796914 -12.9375 3.4375 C-8.95658895 0.09937825 -5.00062348 -0.05107415 0 0 Z M0.0625 14.4375 C0.0625 16.0875 0.0625 17.7375 0.0625 19.4375 C0.3925 19.4375 0.7225 19.4375 1.0625 19.4375 C1.0625 17.7875 1.0625 16.1375 1.0625 14.4375 C0.7325 14.4375 0.4025 14.4375 0.0625 14.4375 Z M-1.9375 33.4375 C-1.2775 36.0775 -0.6175 38.7175 0.0625 41.4375 C0.3925 41.4375 0.7225 41.4375 1.0625 41.4375 C1.0625 38.7975 1.0625 36.1575 1.0625 33.4375 C0.0725 33.4375 -0.9175 33.4375 -1.9375 33.4375 Z " fill="#0B0B0C" transform="translate(402.9375,245.5625)"/>
<path d="M0 0 C1.12591553 0.00523682 2.25183105 0.01047363 3.41186523 0.01586914 C4.62680664 0.0190918 5.84174805 0.02231445 7.09350586 0.02563477 C8.37290039 0.03401367 9.65229492 0.04239258 10.97045898 0.05102539 C12.2537207 0.05553711 13.53698242 0.06004883 14.85913086 0.06469727 C18.04211921 0.07652994 21.22501661 0.09301471 24.40795898 0.11352539 C25.29834765 5.06012908 25.26235583 7.9871443 24.40795898 13.11352539 C20.11795898 13.11352539 15.82795898 13.11352539 11.40795898 13.11352539 C11.40795898 15.42352539 11.40795898 17.73352539 11.40795898 20.11352539 C12.4559668 20.0787207 12.4559668 20.0787207 13.52514648 20.04321289 C14.43522461 20.02516602 15.34530273 20.00711914 16.28295898 19.98852539 C17.6403418 19.9537207 17.6403418 19.9537207 19.02514648 19.91821289 C21.40795898 20.11352539 21.40795898 20.11352539 23.40795898 22.11352539 C23.60327148 24.49633789 23.60327148 24.49633789 23.53295898 27.23852539 C23.50588867 28.60364258 23.50588867 28.60364258 23.47827148 29.99633789 C23.45506836 30.69500977 23.43186523 31.39368164 23.40795898 32.11352539 C19.53111811 33.30639951 16.49173975 34.11352539 12.40795898 34.11352539 C12.40795898 36.09352539 12.40795898 38.07352539 12.40795898 40.11352539 C16.36795898 40.44352539 20.32795898 40.77352539 24.40795898 41.11352539 C24.40795898 45.07352539 24.40795898 49.03352539 24.40795898 53.11352539 C19.88685576 53.98430798 15.57282339 54.27747184 10.97045898 54.30102539 C9.71362305 54.31520508 8.45678711 54.32938477 7.16186523 54.34399414 C3.30386935 54.10713487 0.09508174 53.2264162 -3.59204102 52.11352539 C-3.61730841 44.86865988 -3.63487282 37.62380565 -3.64697266 30.37890625 C-3.65201458 27.91210506 -3.65884792 25.44530687 -3.66748047 22.97851562 C-3.67955226 19.4414801 -3.68527057 15.90448394 -3.68969727 12.36743164 C-3.69485855 11.25703018 -3.70001984 10.14662872 -3.70533752 9.00257874 C-3.70541306 7.98159592 -3.70548859 6.9606131 -3.70556641 5.90869141 C-3.70778702 5.0049025 -3.71000763 4.10111359 -3.71229553 3.16993713 C-3.53059252 0.06272574 -3.13314663 0.13722456 0 0 Z " fill="#0B0B0B" transform="translate(357.592041015625,246.886474609375)"/>
<path d="M0 0 C1.1653125 -0.00128906 2.330625 -0.00257813 3.53125 -0.00390625 C4.7584375 -0.00003906 5.985625 0.00382813 7.25 0.0078125 C9.09078125 0.00201172 9.09078125 0.00201172 10.96875 -0.00390625 C12.71671875 -0.00197266 12.71671875 -0.00197266 14.5 0 C15.57765625 0.00112793 16.6553125 0.00225586 17.765625 0.00341797 C20.25 0.1328125 20.25 0.1328125 21.25 1.1328125 C21.34851171 2.96397133 21.37972629 4.79901183 21.375 6.6328125 C21.37886719 8.13328125 21.37886719 8.13328125 21.3828125 9.6640625 C21.25 12.1328125 21.25 12.1328125 20.25 13.1328125 C18.23035801 13.20525303 16.20832876 13.21658438 14.1875 13.1953125 C13.08277344 13.18628906 11.97804687 13.17726563 10.83984375 13.16796875 C9.98519531 13.15636719 9.13054687 13.14476562 8.25 13.1328125 C8.25 15.4428125 8.25 17.7528125 8.25 20.1328125 C9.03246094 20.12121094 9.81492188 20.10960937 10.62109375 20.09765625 C11.63300781 20.08863281 12.64492187 20.07960938 13.6875 20.0703125 C14.69683594 20.05871094 15.70617187 20.04710937 16.74609375 20.03515625 C19.25 20.1328125 19.25 20.1328125 20.25 21.1328125 C20.34851171 22.96397133 20.37972629 24.79901183 20.375 26.6328125 C20.37886719 28.13328125 20.37886719 28.13328125 20.3828125 29.6640625 C20.25 32.1328125 20.25 32.1328125 19.25 33.1328125 C17.56816052 33.36568258 15.8787584 33.54545416 14.1875 33.6953125 C13.26839844 33.77910156 12.34929687 33.86289062 11.40234375 33.94921875 C10.69207031 34.00980469 9.98179687 34.07039063 9.25 34.1328125 C9.25 36.1128125 9.25 38.0928125 9.25 40.1328125 C10.42369141 40.22369141 10.42369141 40.22369141 11.62109375 40.31640625 C12.63300781 40.40019531 13.64492187 40.48398437 14.6875 40.5703125 C15.69683594 40.65152344 16.70617187 40.73273438 17.74609375 40.81640625 C20.25 41.1328125 20.25 41.1328125 21.25 42.1328125 C21.34823937 43.79710301 21.37973631 45.46563181 21.375 47.1328125 C21.37886719 48.4940625 21.37886719 48.4940625 21.3828125 49.8828125 C21.25 52.1328125 21.25 52.1328125 20.25 53.1328125 C11.2927292 54.68310937 2.19431163 54.70168932 -6.75 53.1328125 C-6.77526692 45.74553148 -6.7928316 38.35826152 -6.80493164 30.97094727 C-6.80997363 28.45564355 -6.81680703 25.94034278 -6.82543945 23.42504883 C-6.83751094 19.81851475 -6.84322949 16.21201927 -6.84765625 12.60546875 C-6.85281754 11.47319351 -6.85797882 10.34091827 -6.86329651 9.17433167 C-6.86337204 8.13332809 -6.86344757 7.09232452 -6.86352539 6.01977539 C-6.865746 5.09822159 -6.86796661 4.17666779 -6.87025452 3.22718811 C-6.62290656 -1.08067115 -3.65410308 0.00382457 0 0 Z " fill="#0E0D0E" transform="translate(218.75,246.8671875)"/>
<path d="M0 0 C1.30066406 -0.00128906 2.60132812 -0.00257813 3.94140625 -0.00390625 C4.96258545 -0.00076416 4.96258545 -0.00076416 6.00439453 0.00244141 C8.08503515 0.0077901 10.16545989 0.0024957 12.24609375 -0.00390625 C14.19708984 -0.00197266 14.19708984 -0.00197266 16.1875 0 C17.39083984 0.00112793 18.59417969 0.00225586 19.83398438 0.00341797 C22.59375 0.1328125 22.59375 0.1328125 23.59375 1.1328125 C23.69226171 2.96397133 23.72347629 4.79901183 23.71875 6.6328125 C23.72261719 8.13328125 23.72261719 8.13328125 23.7265625 9.6640625 C23.59375 12.1328125 23.59375 12.1328125 22.59375 13.1328125 C20.28375 13.1328125 17.97375 13.1328125 15.59375 13.1328125 C15.59375 26.3328125 15.59375 39.5328125 15.59375 53.1328125 C4.59375 54.1328125 4.59375 54.1328125 0.59375 53.1328125 C0.59375 39.9328125 0.59375 26.7328125 0.59375 13.1328125 C-1.71625 13.1328125 -4.02625 13.1328125 -6.40625 13.1328125 C-7.40625 12.1328125 -7.40625 12.1328125 -7.5390625 9.6640625 C-7.53648438 8.66375 -7.53390625 7.6634375 -7.53125 6.6328125 C-7.53382812 5.6325 -7.53640625 4.6321875 -7.5390625 3.6015625 C-7.27762145 -1.25816534 -4.20210838 0.00393877 0 0 Z " fill="#080808" transform="translate(113.40625,246.8671875)"/>
<path d="M0 0 C4.1117256 -0.02465746 8.22342278 -0.04283959 12.33520508 -0.05493164 C13.73495228 -0.0599708 15.1346942 -0.06680216 16.53442383 -0.07543945 C18.54245777 -0.0875232 20.55052957 -0.09269807 22.55859375 -0.09765625 C24.37315063 -0.10551147 24.37315063 -0.10551147 26.22436523 -0.11352539 C29 0 29 0 30 1 C30.09851171 2.83115883 30.12972629 4.66619933 30.125 6.5 C30.12886719 8.00046875 30.12886719 8.00046875 30.1328125 9.53125 C30 12 30 12 29 13 C26.69 13 24.38 13 22 13 C22 26.2 22 39.4 22 53 C17.52786405 55.23606798 11.98527243 53.38348249 7 53 C7 39.8 7 26.6 7 13 C4.69 13 2.38 13 0 13 C-1.18306728 10.63386544 -1.13354608 9.13219264 -1.125 6.5 C-1.12757813 5.7059375 -1.13015625 4.911875 -1.1328125 4.09375 C-1 2 -1 2 0 0 Z " fill="#171717" transform="translate(425,247)"/>
<path d="M0 0 C1.30066406 -0.00128906 2.60132813 -0.00257813 3.94140625 -0.00390625 C4.96258545 -0.00076416 4.96258545 -0.00076416 6.00439453 0.00244141 C8.08503515 0.0077901 10.16545989 0.0024957 12.24609375 -0.00390625 C14.19708984 -0.00197266 14.19708984 -0.00197266 16.1875 0 C17.39083984 0.00112793 18.59417969 0.00225586 19.83398438 0.00341797 C22.59375 0.1328125 22.59375 0.1328125 23.59375 1.1328125 C23.69226171 2.96397133 23.72347629 4.79901183 23.71875 6.6328125 C23.72261719 8.13328125 23.72261719 8.13328125 23.7265625 9.6640625 C23.59375 12.1328125 23.59375 12.1328125 22.59375 13.1328125 C20.26557036 13.50041981 17.9319115 13.83522831 15.59375 14.1328125 C15.60160522 15.74506714 15.60160522 15.74506714 15.60961914 17.38989258 C15.62771401 21.37621224 15.63919846 25.36252826 15.64868164 29.34887695 C15.65371158 31.0744691 15.66053626 32.80005698 15.66918945 34.52563477 C15.68131361 37.0053818 15.68699169 39.4850725 15.69140625 41.96484375 C15.69656754 42.73681595 15.70172882 43.50878815 15.70704651 44.30415344 C15.70738318 47.5158353 15.61701578 50.06301516 14.59375 53.1328125 C12.44798363 53.15967188 10.30212355 53.17914338 8.15625 53.1953125 C6.96128906 53.20691406 5.76632812 53.21851563 4.53515625 53.23046875 C1.59375 53.1328125 1.59375 53.1328125 0.59375 52.1328125 C0.50509792 49.2484743 0.47853704 46.38819092 0.49609375 43.50390625 C0.4975087 42.63967545 0.49892365 41.77544464 0.50038147 40.88502502 C0.50599761 38.11341958 0.51855281 35.3418937 0.53125 32.5703125 C0.53626292 30.6959647 0.54082619 28.82161565 0.54492188 26.94726562 C0.55597228 22.34241706 0.5732477 17.73762829 0.59375 13.1328125 C-1.1078125 13.16375 -1.1078125 13.16375 -2.84375 13.1953125 C-6.40625 13.1328125 -6.40625 13.1328125 -7.40625 12.1328125 C-7.50476171 10.30165367 -7.53597629 8.46661317 -7.53125 6.6328125 C-7.53382813 5.6325 -7.53640625 4.6321875 -7.5390625 3.6015625 C-7.27762145 -1.25816534 -4.20210838 0.00393877 0 0 Z " fill="#0E0E0F" transform="translate(289.40625,246.8671875)"/>
<path d="M0 0 C4.29 0 8.58 0 13 0 C13 13.2 13 26.4 13 40 C15.97 40 18.94 40 22 40 C25.0625 41 25.0625 41 27 42 C27.0270043 43.45823212 27.04639787 44.91660675 27.0625 46.375 C27.07410156 47.18710937 27.08570313 47.99921875 27.09765625 48.8359375 C27 51 27 51 26 53 C23.26444044 53.93568361 20.72298666 54.12818819 17.84765625 54.1328125 C16.68266602 54.13474609 16.68266602 54.13474609 15.49414062 54.13671875 C14.29047852 54.13091797 14.29047852 54.13091797 13.0625 54.125 C12.26392578 54.12886719 11.46535156 54.13273437 10.64257812 54.13671875 C9.4756543 54.13478516 9.4756543 54.13478516 8.28515625 54.1328125 C7.58269775 54.13168457 6.88023926 54.13055664 6.15649414 54.12939453 C3.70461261 53.98227609 1.4023785 53.49964116 -1 53 C-1.02526692 45.61271898 -1.0428316 38.22544902 -1.05493164 30.83813477 C-1.05997363 28.32283105 -1.06680703 25.80753028 -1.07543945 23.29223633 C-1.08751094 19.68570225 -1.09322949 16.07920677 -1.09765625 12.47265625 C-1.10281754 11.34038101 -1.10797882 10.20810577 -1.11329651 9.04151917 C-1.11337204 8.00051559 -1.11344757 6.95951202 -1.11352539 5.88696289 C-1.115746 4.96540909 -1.11796661 4.04385529 -1.12025452 3.09437561 C-1 1 -1 1 0 0 Z " fill="#08080A" transform="translate(180,247)"/>
<path d="M0 0 C4.62 0 9.24 0 14 0 C15.37365621 2.74731243 15.0128639 4.81667064 14.87890625 7.8828125 C14.83056641 9.04941406 14.78222656 10.21601563 14.73242188 11.41796875 C14.67634766 12.64128906 14.62027344 13.86460937 14.5625 15.125 C14.51029297 16.35605469 14.45808594 17.58710938 14.40429688 18.85546875 C14.2743256 21.90388588 14.13934981 24.9519995 14 28 C13.67 28 13.34 28 13 28 C12.80377954 23.87536584 12.61949784 19.75028427 12.4375 15.625 C12.38142578 14.449375 12.32535156 13.27375 12.26757812 12.0625 C12.21923828 10.94101562 12.17089844 9.81953125 12.12109375 8.6640625 C12.0739624 7.62717285 12.02683105 6.5902832 11.97827148 5.52197266 C12 3 12 3 13 1 C12.01 1.495 12.01 1.495 11 2 C8.03 2 5.06 2 2 2 C2 8.93 2 15.86 2 23 C1.01 23 0.02 23 -1 23 C-1 19.04 -1 15.08 -1 11 C-1.99 10.67 -2.98 10.34 -4 10 C-4 7.03 -4 4.06 -4 1 C-2 3 -2 3 -2 7 C-1.34 7 -0.68 7 0 7 C-0.2784375 5.824375 -0.2784375 5.824375 -0.5625 4.625 C-1 2 -1 2 0 0 Z " fill="#0F0E11" transform="translate(262,247)"/>
<path d="M0 0 C1.30066406 -0.00128906 2.60132812 -0.00257813 3.94140625 -0.00390625 C4.96258545 -0.00076416 4.96258545 -0.00076416 6.00439453 0.00244141 C8.08503515 0.0077901 10.16545989 0.0024957 12.24609375 -0.00390625 C14.19708984 -0.00197266 14.19708984 -0.00197266 16.1875 0 C17.39083984 0.00112793 18.59417969 0.00225586 19.83398438 0.00341797 C22.59375 0.1328125 22.59375 0.1328125 23.59375 1.1328125 C23.69226171 2.96397133 23.72347629 4.79901183 23.71875 6.6328125 C23.72261719 8.13328125 23.72261719 8.13328125 23.7265625 9.6640625 C23.59375 12.1328125 23.59375 12.1328125 22.59375 13.1328125 C20.28375 13.1328125 17.97375 13.1328125 15.59375 13.1328125 C15.59375 26.3328125 15.59375 39.5328125 15.59375 53.1328125 C15.26375 53.1328125 14.93375 53.1328125 14.59375 53.1328125 C14.59375 39.6028125 14.59375 26.0728125 14.59375 12.1328125 C16.90375 12.1328125 19.21375 12.1328125 21.59375 12.1328125 C21.59375 8.8328125 21.59375 5.5328125 21.59375 2.1328125 C12.35375 2.1328125 3.11375 2.1328125 -6.40625 2.1328125 C-6.40625 5.4328125 -6.40625 8.7328125 -6.40625 12.1328125 C-6.73625 12.1328125 -7.06625 12.1328125 -7.40625 12.1328125 C-7.43312279 10.32039198 -7.45258715 8.50786017 -7.46875 6.6953125 C-7.48035156 5.68597656 -7.49195312 4.67664063 -7.50390625 3.63671875 C-7.3126795 -1.26633522 -4.22551531 0.00396071 0 0 Z " fill="#585859" transform="translate(113.40625,246.8671875)"/>
<path d="M0 0 C0.33 0 0.66 0 1 0 C1.33 2.64 1.66 5.28 2 8 C2.33 8 2.66 8 3 8 C3 22.52 3 37.04 3 52 C2.01 51.67 1.02 51.34 0 51 C0 34.17 0 17.34 0 0 Z " fill="#565657" transform="translate(245,248)"/>
<path d="M0 0 C0.66 0.33 1.32 0.66 2 1 C1.67 1.99 1.34 2.98 1 4 C0.88574862 5.54897725 0.82382085 7.10211766 0.79467773 8.6550293 C0.77473251 9.59577805 0.75478729 10.53652679 0.73423767 11.50578308 C0.71752518 12.51836685 0.70081268 13.53095062 0.68359375 14.57421875 C0.66281265 15.61318802 0.64203156 16.65215729 0.62062073 17.72261047 C0.55519344 21.04417253 0.49627179 24.36581416 0.4375 27.6875 C0.39430831 29.9381593 0.35069381 32.18881052 0.30664062 34.43945312 C0.19951902 39.9595511 0.09773984 45.47972837 0 51 C-0.66 51 -1.32 51 -2 51 C-3.42347206 48.15305588 -3.1298048 45.73142158 -3.1328125 42.55078125 C-3.13376923 41.90110886 -3.13472595 41.25143646 -3.13571167 40.58207703 C-3.13639351 39.19753931 -3.13453896 37.81299841 -3.13037109 36.4284668 C-3.1251349 34.36564362 -3.13025614 32.3030497 -3.13671875 30.24023438 C-3.14146223 23.3740492 -3.00730407 16.52379374 -2.6171875 9.66796875 C-2.54870605 8.45778076 -2.48022461 7.24759277 -2.40966797 6.00073242 C-2 3 -2 3 0 0 Z " fill="#1F1F25" transform="translate(145,249)"/>
<path d="M0 0 C1.12591553 0.00523682 2.25183105 0.01047363 3.41186523 0.01586914 C4.62680664 0.0190918 5.84174805 0.02231445 7.09350586 0.02563477 C8.37290039 0.03401367 9.65229492 0.04239258 10.97045898 0.05102539 C12.2537207 0.05553711 13.53698242 0.06004883 14.85913086 0.06469727 C18.04211921 0.07652994 21.22501661 0.09301471 24.40795898 0.11352539 C24.07795898 0.77352539 23.74795898 1.43352539 23.40795898 2.11352539 C15.15795898 2.11352539 6.90795898 2.11352539 -1.59204102 2.11352539 C-1.92204102 18.61352539 -2.25204102 35.11352539 -2.59204102 52.11352539 C-2.92204102 52.11352539 -3.25204102 52.11352539 -3.59204102 52.11352539 C-3.61730841 44.86865988 -3.63487282 37.62380565 -3.64697266 30.37890625 C-3.65201458 27.91210506 -3.65884792 25.44530687 -3.66748047 22.97851562 C-3.67955226 19.4414801 -3.68527057 15.90448394 -3.68969727 12.36743164 C-3.69485855 11.25703018 -3.70001984 10.14662872 -3.70533752 9.00257874 C-3.70541306 7.98159592 -3.70548859 6.9606131 -3.70556641 5.90869141 C-3.70778702 5.0049025 -3.71000763 4.10111359 -3.71229553 3.16993713 C-3.53059252 0.06272574 -3.13314663 0.13722456 0 0 Z " fill="#6B6B6B" transform="translate(357.592041015625,246.886474609375)"/>
<path d="M0 0 C4.29 0 8.58 0 13 0 C13 13.2 13 26.4 13 40 C15.97 40 18.94 40 22 40 C25.0625 41 25.0625 41 27 42 C27.0270043 43.45823212 27.04639787 44.91660675 27.0625 46.375 C27.07410156 47.18710937 27.08570313 47.99921875 27.09765625 48.8359375 C27 51 27 51 26 53 C24.68 52.67 23.36 52.34 22 52 C22.99 51.505 22.99 51.505 24 51 C24.46651207 48.87423218 24.46651207 48.87423218 24.625 46.4375 C24.74875 44.973125 24.8725 43.50875 25 42 C20.71 42 16.42 42 12 42 C12 28.47 12 14.94 12 1 C8.04 1 4.08 1 0 1 C0 0.67 0 0.34 0 0 Z " fill="#363637" transform="translate(180,247)"/>
<path d="M0 0 C4.71428571 1.71428571 4.71428571 1.71428571 6 3 C6.66 2.34 7.32 1.68 8 1 C8.33 3.97 8.66 6.94 9 10 C7.68 10 6.36 10 5 10 C4.34 8.35 3.68 6.7 3 5 C-0.3 5 -3.6 5 -7 5 C-7 9.62 -7 14.24 -7 19 C-9.04682016 14.90635968 -9.32409631 12.91193393 -9.375 8.4375 C-9.40335937 7.30183594 -9.43171875 6.16617187 -9.4609375 4.99609375 C-9 2 -9 2 -7.12890625 0.0859375 C-4.2805209 -1.36700035 -3.01330469 -0.95543807 0 0 Z " fill="#434144" transform="translate(397,278)"/>
<path d="M0 0 C0.33 0 0.66 0 1 0 C1 3.63 1 7.26 1 11 C-4.97802937 13.20927172 -9.73960391 12.93213141 -16 12 C-16.33 9.69 -16.66 7.38 -17 5 C-15.68 4.67 -14.36 4.34 -13 4 C-12.34 5.32 -11.68 6.64 -11 8 C-11.33 8.33 -11.66 8.66 -12 9 C-8.04 9.33 -4.08 9.66 0 10 C0 6.7 0 3.4 0 0 Z M-15 6 C-15 7.65 -15 9.3 -15 11 C-14.67 11 -14.34 11 -14 11 C-14 9.35 -14 7.7 -14 6 C-14.33 6 -14.66 6 -15 6 Z " fill="#7C7C7F" transform="translate(418,254)"/>
<path d="M0 0 C0.66 0.33 1.32 0.66 2 1 C1.52433594 2.28583984 1.52433594 2.28583984 1.0390625 3.59765625 C-0.70667161 9.70772562 -0.47220273 16.13142942 -0.625 22.4375 C-0.66367188 23.74138672 -0.70234375 25.04527344 -0.7421875 26.38867188 C-0.83606701 29.59230999 -0.92175154 32.79594832 -1 36 C-1.66 36 -2.32 36 -3 36 C-3.09092405 27.1803671 -3.14351841 18.37070767 -2.625 9.5625 C-2.52058594 7.77005859 -2.52058594 7.77005859 -2.4140625 5.94140625 C-2 3 -2 3 0 0 Z " fill="#282830" transform="translate(145,249)"/>
<path d="M0 0 C0.33 0 0.66 0 1 0 C1 2.31 1 4.62 1 7 C2.17369141 6.98259766 2.17369141 6.98259766 3.37109375 6.96484375 C4.38300781 6.95582031 5.39492187 6.94679688 6.4375 6.9375 C7.44683594 6.92589844 8.45617187 6.91429687 9.49609375 6.90234375 C12 7 12 7 13 8 C13.09851171 9.83115883 13.12972629 11.66619933 13.125 13.5 C13.12757813 14.5003125 13.13015625 15.500625 13.1328125 16.53125 C13 19 13 19 12 20 C10.31816052 20.23287008 8.6287584 20.41264166 6.9375 20.5625 C5.55884766 20.68818359 5.55884766 20.68818359 4.15234375 20.81640625 C3.44207031 20.87699219 2.73179687 20.93757813 2 21 C4.5654594 18.4345406 6.47686668 18.45953913 10 18 C10.33 14.7 10.66 11.4 11 8 C7.37 8 3.74 8 0 8 C0 5.36 0 2.72 0 0 Z " fill="#737375" transform="translate(226,260)"/>
<path d="M0 0 C1.79244141 0.01740234 1.79244141 0.01740234 3.62109375 0.03515625 C5.41740234 0.04869141 5.41740234 0.04869141 7.25 0.0625 C8.17683594 0.07410156 9.10367187 0.08570313 10.05859375 0.09765625 C6.85479358 2.23352303 6.03919408 2.328978 2.37109375 2.22265625 C1.56285156 2.20460937 0.75460937 2.1865625 -0.078125 2.16796875 C-1.00044922 2.13316406 -1.00044922 2.13316406 -1.94140625 2.09765625 C-1.91820312 2.773125 -1.895 3.44859375 -1.87109375 4.14453125 C-1.85304688 5.0365625 -1.835 5.92859375 -1.81640625 6.84765625 C-1.79320312 7.729375 -1.77 8.61109375 -1.74609375 9.51953125 C-1.95001123 12.21124205 -2.57588904 13.79670599 -3.94140625 16.09765625 C-4.94299126 10.75586952 -4.8668837 6.46542544 -3.94140625 1.09765625 C-2.94140625 0.09765625 -2.94140625 0.09765625 0 0 Z " fill="#656567" transform="translate(337.94140625,246.90234375)"/>
<path d="M0 0 C4.62 0 9.24 0 14 0 C15.37365621 2.74731243 15.0128639 4.81667064 14.87890625 7.8828125 C14.83056641 9.04941406 14.78222656 10.21601563 14.73242188 11.41796875 C14.67634766 12.64128906 14.62027344 13.86460937 14.5625 15.125 C14.51029297 16.35605469 14.45808594 17.58710938 14.40429688 18.85546875 C14.2743256 21.90388588 14.13934981 24.9519995 14 28 C13.67 28 13.34 28 13 28 C12.80377954 23.87536584 12.61949784 19.75028427 12.4375 15.625 C12.38142578 14.449375 12.32535156 13.27375 12.26757812 12.0625 C12.21923828 10.94101562 12.17089844 9.81953125 12.12109375 8.6640625 C12.0739624 7.62717285 12.02683105 6.5902832 11.97827148 5.52197266 C12 3 12 3 13 1 C8.71 1 4.42 1 0 1 C0 0.67 0 0.34 0 0 Z " fill="#676767" transform="translate(262,247)"/>
<path d="M0 0 C1.125 3.75 1.125 3.75 0 6 C0.66 6 1.32 6 2 6 C2 5.01 2 4.02 2 3 C2.66 3 3.32 3 4 3 C2.54822555 7.11336093 0.61875142 10.50833145 -2 14 C-2.99 14.33 -3.98 14.66 -5 15 C-4.43174347 9.45949887 -2.37113483 4.96284034 0 0 Z " fill="#59595C" transform="translate(262,138)"/>
<path d="M0 0 C0.99 0 1.98 0 3 0 C4.59412284 3.18824568 4.10174735 6.62896662 4.0625 10.125 C4.05798828 10.87910156 4.05347656 11.63320313 4.04882812 12.41015625 C4.03703499 14.27347127 4.01909942 16.13674555 4 18 C2.68 18.33 1.36 18.66 0 19 C-1.19825457 15.40523628 -1.14608744 12.11450601 -1.125 8.375 C-1.12886719 7.68148438 -1.13273438 6.98796875 -1.13671875 6.2734375 C-1.12666646 1.12666646 -1.12666646 1.12666646 0 0 Z M1 2 C1 6.95 1 11.9 1 17 C1.66 17 2.32 17 3 17 C3 12.38 3 7.76 3 3 C2.34 2.67 1.68 2.34 1 2 Z " fill="#2B292C" transform="translate(156,258)"/>
<path d="M0 0 C0.71994141 0.01160156 1.43988281 0.02320313 2.18164062 0.03515625 C2.89771484 0.02355469 3.61378906 0.01195312 4.3515625 0 C9.0749299 0.02626525 10.28500004 0.44080081 14.24414062 3.41015625 C6.65414063 3.41015625 -0.93585938 3.41015625 -8.75585938 3.41015625 C-5.46303948 0.11733636 -4.46394825 0.02486879 0 0 Z " fill="#5F5F60" transform="translate(400.755859375,245.58984375)"/>
<path d="M0 0 C2.85212766 2.85212766 2.73901015 5.01990482 3 9 C2.52944399 11.45259494 1.82239721 13.62956099 1 16 C0.34 15.67 -0.32 15.34 -1 15 C-1.02703381 13.06257659 -1.04641125 11.12504521 -1.0625 9.1875 C-1.07410156 8.10855469 -1.08570313 7.02960938 -1.09765625 5.91796875 C-1 3 -1 3 0 0 Z " fill="#49484B" transform="translate(259,284)"/>
<path d="M0 0 C1.14680101 3.44040303 0.87124738 4.00270384 -0.43359375 7.23046875 C-0.75263672 8.03291016 -1.07167969 8.83535156 -1.40039062 9.66210938 C-1.74263672 10.49548828 -2.08488281 11.32886719 -2.4375 12.1875 C-2.77587891 13.03248047 -3.11425781 13.87746094 -3.46289062 14.74804688 C-4.30025552 16.83556216 -5.14620197 18.91916409 -6 21 C-6.66 19.68 -7.32 18.36 -8 17 C-7.34 17 -6.68 17 -6 17 C-5.87625 15.906875 -5.7525 14.81375 -5.625 13.6875 C-5 10 -5 10 -3 7 C-2.32136945 5.0040278 -1.65358081 3.00431449 -1 1 C-0.67 0.67 -0.34 0.34 0 0 Z " fill="#5D5D5D" transform="translate(245,214)"/>
<path d="M0 0 C2 2 2 2 2 6 C2.66 6 3.32 6 4 6 C3.67 4.35 3.34 2.7 3 1 C3.66 1.66 4.32 2.32 5 3 C4.9765625 5.3828125 4.9765625 5.3828125 4.625 8.125 C4.51414062 9.03507812 4.40328125 9.94515625 4.2890625 10.8828125 C4.19367188 11.58148438 4.09828125 12.28015625 4 13 C3.67 12.01 3.34 11.02 3 10 C2.01 9.67 1.02 9.34 0 9 C0 6.03 0 3.06 0 0 Z " fill="#686869" transform="translate(258,248)"/>
<path d="M0 0 C0.99 0 1.98 0 3 0 C1.7508258 3.45925163 0.32472205 6.14693203 -2 9 C-3 7 -3 7 -2.125 3.9375 C-1 1 -1 1 0 0 Z " fill="#353535" transform="translate(291,99)"/>
<path d="M0 0 C0.99 0 1.98 0 3 0 C3 2.64 3 5.28 3 8 C2.01 8.33 1.02 8.66 0 9 C0 6.03 0 3.06 0 0 Z " fill="#0F0F0F" transform="translate(258,278)"/>
<path d="M0 0 C0.98120464 3.05263664 0.98120464 4.94736336 0 8 C-1.32 8.33 -2.64 8.66 -4 9 C-2.80100302 5.9168649 -1.52299523 2.93720508 0 0 Z " fill="#5A5A5C" transform="translate(203,182)"/>
<path d="M0 0 C0.66 0.66 1.32 1.32 2 2 C4.57061311 2.64767793 4.57061311 2.64767793 7 3 C4.38058783 4.74627478 2.96175123 5.38722388 0 6 C-1.125 2.25 -1.125 2.25 0 0 Z " fill="#595959" transform="translate(265,161)"/>
<path d="M0 0 C3.59790874 0.27676221 5.70210293 1.35105147 9 3 C5.04 3 1.08 3 -3 3 C-2.01 2.01 -1.02 1.02 0 0 Z " fill="#ADABB4" transform="translate(392,277)"/>
<path d="M0 0 C1.33332095 2.6666419 0.67102033 4.16680303 0 7 C-0.66 7 -1.32 7 -2 7 C-2 7.66 -2 8.32 -2 9 C-1.34 9.33 -0.68 9.66 0 10 C-1.32 10.33 -2.64 10.66 -4 11 C-3.5247412 9.35303396 -3.04468109 7.70745272 -2.5625 6.0625 C-2.29566406 5.14597656 -2.02882813 4.22945312 -1.75390625 3.28515625 C-1 1 -1 1 0 0 Z " fill="#5F5F62" transform="translate(275,138)"/>
<path d="M0 0 C0.66 0.33 1.32 0.66 2 1 C0.515 4.96 0.515 4.96 -1 9 C-1.33 9 -1.66 9 -2 9 C-2.25 3.375 -2.25 3.375 0 0 Z " fill="#4B4B4C" transform="translate(145,249)"/>
<path d="M0 0 C-0.99 1.485 -0.99 1.485 -2 3 C-3.9453125 3.29296875 -3.9453125 3.29296875 -6.125 3.1875 C-7.40375 3.125625 -8.6825 3.06375 -10 3 C-9 1 -9 1 -5.5625 -0.1875 C-2 -1 -2 -1 0 0 Z " fill="#606060" transform="translate(255,186)"/>
</svg>
